<svg width="116" height="80" viewBox="0 0 116 80" fill="none" xmlns="http://www.w3.org/2000/svg">
<g clip-path="url(#clip0_805_30818)">
<path d="M0 3C0 1.34315 1.34315 0 3 0H113C114.657 0 116 1.34315 116 3V80H0V3Z" fill="#0D1212"/>
<rect width="118" height="24" fill="#182125"/>
<path d="M12.5 41C12.5 39.067 14.067 37.5 16 37.5H117.5V80.5H12.5V41Z" fill="#182125" stroke="#2A363C"/>
<rect x="45" y="6" width="27" height="13" rx="3" fill="#3A444B"/>
<rect x="76" y="6" width="27" height="13" rx="3" fill="#3A444B"/>
<rect x="107" y="6" width="27" height="13" rx="3" fill="#3A444B"/>
<g clip-path="url(#clip1_805_30818)">
<path d="M20.3933 10.154V13.846L17.1965 15.6924V18L22.3929 15.0002V8.99982L20.3933 10.154Z" fill="#00AC69"/>
<path d="M17.1965 8.30836L20.3933 10.154L22.3929 8.99981L17.1965 6L12 8.99981L13.9989 10.154L17.1965 8.30836Z" fill="#1CE783"/>
<path d="M15.1976 13.1546V16.8466L17.1965 18V12.0004L12 8.99982V11.3082L15.1976 13.1546Z" fill="white"/>
</g>
<rect x="24" y="49" width="74" height="6" rx="1" fill="#3A444B"/>
<rect x="24" y="59" width="59" height="8" rx="1" fill="#3A444B"/>
</g>
<defs>
<clipPath id="clip0_805_30818">
<path d="M0 3C0 1.34315 1.34315 0 3 0H113C114.657 0 116 1.34315 116 3V80H0V3Z" fill="white"/>
</clipPath>
<clipPath id="clip1_805_30818">
<rect width="10.5" height="12" fill="white" transform="translate(12 6)"/>
</clipPath>
</defs>
</svg>
