<svg width="116" height="80" viewBox="0 0 116 80" fill="none" xmlns="http://www.w3.org/2000/svg">
<g clip-path="url(#clip0_805_30818)">
<path d="M0 3C0 1.34315 1.34315 0 3 0H113C114.657 0 116 1.34315 116 3V80H0V3Z" fill="#0D1212"/>
<rect width="118" height="24" fill="#182125"/>
<path d="M12.5 41C12.5 39.067 14.067 37.5 16 37.5H117.5V80.5H12.5V41Z" fill="#182125" stroke="#2A363C"/>
<rect x="45" y="6" width="27" height="13" rx="3" fill="#3A444B"/>
<rect x="76" y="6" width="27" height="13" rx="3" fill="#3A444B"/>
<rect x="107" y="6" width="27" height="13" rx="3" fill="#3A444B"/>
<path d="M23.912 11.6775C23.3496 9.01506 20.246 7.44865 16.9812 8.17959C13.7164 8.90977 11.5256 11.6608 12.088 14.3225C12.6505 16.9849 15.754 18.5513 19.0188 17.8204C22.2836 17.0902 24.4744 14.3399 23.912 11.6775ZM18 15.4541C16.6823 15.4541 15.6149 14.3551 15.6149 13C15.6149 11.6449 16.683 10.5459 18 10.5459C19.317 10.5459 20.3851 11.6442 20.3851 13C20.3851 14.3558 19.317 15.4541 18 15.4541Z" fill="#008C99"/>
<path d="M18.5277 9.56418C16.6365 9.56418 15.1031 11.1419 15.1031 13.0878C15.1031 15.0337 16.6365 16.6115 18.5277 16.6115C20.4196 16.6115 21.953 15.0337 21.953 13.0878C21.9522 11.1419 20.4189 9.56418 18.5277 9.56418ZM17.9999 15.1436C16.8493 15.1436 15.9166 14.1839 15.9166 13C15.9166 11.8161 16.8493 10.8564 17.9999 10.8564C19.1504 10.8564 20.0831 11.8161 20.0831 13C20.0831 14.1839 19.1504 15.1436 17.9999 15.1436Z" fill="#70CCD3"/>
<rect x="24" y="49" width="74" height="6" rx="1" fill="#3A444B"/>
<rect x="24" y="59" width="59" height="8" rx="1" fill="#3A444B"/>
</g>
<defs>
<clipPath id="clip0_805_30818">
<path d="M0 3C0 1.34315 1.34315 0 3 0H113C114.657 0 116 1.34315 116 3V80H0V3Z" fill="white"/>
</clipPath>
</defs>
</svg>
