<svg width="13" height="3" viewBox="0 0 13 3" fill="none" xmlns="http://www.w3.org/2000/svg">
<path fill-rule="evenodd" clip-rule="evenodd" d="M3 1.25C3 1.94036 2.44036 2.5 1.75 2.5C1.05964 2.5 0.5 1.94036 0.5 1.25C0.5 0.559644 1.05964 0 1.75 0C2.44036 0 3 0.559644 3 1.25ZM8 1.25C8 1.94036 7.44036 2.5 6.75 2.5C6.05964 2.5 5.5 1.94036 5.5 1.25C5.5 0.559644 6.05964 0 6.75 0C7.44036 0 8 0.559644 8 1.25ZM11.75 2.5C12.4404 2.5 13 1.94036 13 1.25C13 0.559644 12.4404 0 11.75 0C11.0596 0 10.5 0.559644 10.5 1.25C10.5 1.94036 11.0596 2.5 11.75 2.5Z" fill="#556060"/>
</svg>
