<svg width="15" height="15" viewBox="0 0 15 15" fill="none" xmlns="http://www.w3.org/2000/svg">
<path fill-rule="evenodd" clip-rule="evenodd" d="M0 7.5C0 3.4 3.4 0 7.5 0C11.6 0 15 3.4 15 7.5C15 11.6 11.6 15 7.5 15C3.4 15 0 11.6 0 7.5ZM1 7.5C1 11.1 3.9 14 7.5 14C11.1 14 14 11.1 14 7.5C14 3.9 11.1 1 7.5 1C3.9 1 1 3.9 1 7.5ZM8 11V12H7V11H8ZM5 5.5C5 4.1 6.1 3 7.5 3C8.9 3 10 4.1 10 5.5C10 6.72802 9.38448 7.18663 8.89581 7.55073C8.82737 7.60172 8.76142 7.65086 8.7 7.7C8.67663 7.71402 8.65391 7.72761 8.63184 7.74081C8.18174 8.01 8 8.1187 8 8.5V9V10H7V9V8.5C7 7.59544 7.57275 7.18182 7.97814 6.88907C8.02091 6.85818 8.06182 6.82863 8.1 6.8C8.12297 6.78622 8.14572 6.77265 8.16824 6.75922C8.6359 6.48036 9 6.26325 9 5.5C9 4.7 8.3 4 7.5 4C6.7 4 6 4.7 6 5.5V6H5V5.5Z" fill="#6E7575"/>
</svg>
