<svg width="34" height="34" viewBox="0 0 34 34" fill="none" xmlns="http://www.w3.org/2000/svg">
<rect width="34" height="34" rx="10" fill="#EFF8FF"/>
<circle cx="16.5" cy="16.5" r="9.5" stroke="#0C74DF" stroke-width="2"/>
<mask id="path-3-inside-1_503_5615" fill="white">
<path fill-rule="evenodd" clip-rule="evenodd" d="M14.682 20.432C14.8772 20.6272 15.1938 20.6272 15.3891 20.432L16.0962 19.7249L21.6553 14.1657C21.8506 13.9705 21.8506 13.6539 21.6553 13.4586L20.9482 12.7515C20.753 12.5563 20.4364 12.5563 20.2411 12.7515L15.0355 17.9571L13.2678 16.1893C13.0725 15.9941 12.7559 15.9941 12.5607 16.1893L11.8536 16.8964C11.6583 17.0917 11.6583 17.4083 11.8536 17.6036L13.9749 19.7249L14.682 20.432Z"/>
</mask>
<path fill-rule="evenodd" clip-rule="evenodd" d="M14.682 20.432C14.8772 20.6272 15.1938 20.6272 15.3891 20.432L16.0962 19.7249L21.6553 14.1657C21.8506 13.9705 21.8506 13.6539 21.6553 13.4586L20.9482 12.7515C20.753 12.5563 20.4364 12.5563 20.2411 12.7515L15.0355 17.9571L13.2678 16.1893C13.0725 15.9941 12.7559 15.9941 12.5607 16.1893L11.8536 16.8964C11.6583 17.0917 11.6583 17.4083 11.8536 17.6036L13.9749 19.7249L14.682 20.432Z" fill="#0C74DF"/>
<path d="M15.0355 17.9571L14.3284 18.6642L15.0355 19.3713L15.7426 18.6642L15.0355 17.9571ZM14.682 19.7249C14.8772 19.5296 15.1938 19.5296 15.3891 19.7249L13.9749 21.1391C14.5607 21.7249 15.5104 21.7249 16.0962 21.1391L14.682 19.7249ZM15.3891 19.0178L14.682 19.7249L16.0962 21.1391L16.8033 20.432L15.3891 19.0178ZM20.9482 13.4586L15.3891 19.0178L16.8033 20.432L22.3624 14.8728L20.9482 13.4586ZM20.9482 14.1657C20.753 13.9705 20.753 13.6539 20.9482 13.4586L22.3624 14.8728C22.9482 14.2871 22.9482 13.3373 22.3624 12.7515L20.9482 14.1657ZM20.2411 13.4586L20.9482 14.1657L22.3624 12.7515L21.6553 12.0444L20.2411 13.4586ZM20.9482 13.4586C20.753 13.6539 20.4364 13.6539 20.2411 13.4586L21.6553 12.0444C21.0695 11.4586 20.1198 11.4586 19.534 12.0444L20.9482 13.4586ZM15.7426 18.6642L20.9482 13.4586L19.534 12.0444L14.3284 17.25L15.7426 18.6642ZM12.5607 16.8964L14.3284 18.6642L15.7426 17.25L13.9749 15.4822L12.5607 16.8964ZM13.2678 16.8964C13.0725 17.0917 12.7559 17.0917 12.5607 16.8964L13.9749 15.4822C13.3891 14.8964 12.4393 14.8964 11.8536 15.4822L13.2678 16.8964ZM12.5607 17.6036L13.2678 16.8964L11.8536 15.4822L11.1464 16.1893L12.5607 17.6036ZM12.5607 16.8964C12.7559 17.0917 12.7559 17.4083 12.5607 17.6036L11.1464 16.1893C10.5607 16.7751 10.5607 17.7249 11.1464 18.3107L12.5607 16.8964ZM14.682 19.0178L12.5607 16.8964L11.1464 18.3107L13.2678 20.432L14.682 19.0178ZM15.3891 19.7249L14.682 19.0178L13.2678 20.432L13.9749 21.1391L15.3891 19.7249Z" fill="#0C74DF" mask="url(#path-3-inside-1_503_5615)"/>
</svg>
