<svg width="34" height="34" viewBox="0 0 34 34" fill="none" xmlns="http://www.w3.org/2000/svg">
<rect width="34" height="34" rx="10" fill="#F0FBFC"/>
<mask id="path-2-inside-1_501_6066" fill="white">
<path fill-rule="evenodd" clip-rule="evenodd" d="M18 10H23C23.5523 10 24 10.4477 24 11V16H18V10ZM16 8H18H23C24.6569 8 26 9.34315 26 11V23C26 24.6569 24.6569 26 23 26H18H16H11C9.34315 26 8 24.6569 8 23V11C8 9.34315 9.34315 8 11 8H16ZM18 24H23C23.5523 24 24 23.5523 24 23V18H18V24ZM16 24H11C10.4477 24 10 23.5523 10 23V18H16V24ZM10 16V11C10 10.4477 10.4477 10 11 10H16V16H10Z"/>
</mask>
<path fill-rule="evenodd" clip-rule="evenodd" d="M18 10H23C23.5523 10 24 10.4477 24 11V16H18V10ZM16 8H18H23C24.6569 8 26 9.34315 26 11V23C26 24.6569 24.6569 26 23 26H18H16H11C9.34315 26 8 24.6569 8 23V11C8 9.34315 9.34315 8 11 8H16ZM18 24H23C23.5523 24 24 23.5523 24 23V18H18V24ZM16 24H11C10.4477 24 10 23.5523 10 23V18H16V24ZM10 16V11C10 10.4477 10.4477 10 11 10H16V16H10Z" fill="white"/>
<path d="M18 10V9H17V10H18ZM24 16V17H25V16H24ZM18 16H17V17H18V16ZM18 24H17V25H18V24ZM24 18H25V17H24V18ZM18 18V17H17V18H18ZM16 24V25H17V24H16ZM10 18V17H9V18H10ZM16 18H17V17H16V18ZM10 16H9V17H10V16ZM16 10H17V9H16V10ZM16 16V17H17V16H16ZM23 9H18V11H23V9ZM25 11C25 9.89543 24.1046 9 23 9V11H25ZM25 16V11H23V16H25ZM24 15H18V17H24V15ZM19 16V10H17V16H19ZM18 7H16V9H18V7ZM23 7H18V9H23V7ZM27 11C27 8.79086 25.2091 7 23 7V9C24.1046 9 25 9.89543 25 11H27ZM27 23V11H25V23H27ZM23 27C25.2091 27 27 25.2091 27 23H25C25 24.1046 24.1046 25 23 25V27ZM18 27H23V25H18V27ZM16 27H18V25H16V27ZM11 27H16V25H11V27ZM7 23C7 25.2091 8.79086 27 11 27V25C9.89543 25 9 24.1046 9 23H7ZM7 11V23H9V11H7ZM11 7C8.79086 7 7 8.79086 7 11H9C9 9.89543 9.89543 9 11 9V7ZM16 7H11V9H16V7ZM18 25H23V23H18V25ZM23 25C24.1046 25 25 24.1046 25 23H23V25ZM25 23V18H23V23H25ZM18 19H24V17H18V19ZM19 24V18H17V24H19ZM11 25H16V23H11V25ZM9 23C9 24.1046 9.89543 25 11 25V23H11H9ZM9 18V23H11V18H9ZM10 19H16V17H10V19ZM15 18V24H17V18H15ZM9 11V16H11V11H9ZM11 9C9.89543 9 9 9.89543 9 11H11V11V9ZM16 9H11V11H16V9ZM15 10V16H17V10H15ZM16 15H10V17H16V15Z" fill="#019CAA" mask="url(#path-2-inside-1_501_6066)"/>
<rect x="20" y="5" width="9" height="9" fill="#F0FBFC"/>
<mask id="path-5-inside-2_501_6066" fill="white">
<path fill-rule="evenodd" clip-rule="evenodd" d="M24 11.5C24 11.7761 24.2239 12 24.5 12H25.5C25.7761 12 26 11.7761 26 11.5V10H27.5C27.7761 10 28 9.77614 28 9.5V8.5C28 8.22386 27.7761 8 27.5 8H26V6.5C26 6.22386 25.7761 6 25.5 6H24.5C24.2239 6 24 6.22386 24 6.5V8H22.5C22.2239 8 22 8.22386 22 8.5V9.5C22 9.77614 22.2239 10 22.5 10H24V11.5Z"/>
</mask>
<path fill-rule="evenodd" clip-rule="evenodd" d="M24 11.5C24 11.7761 24.2239 12 24.5 12H25.5C25.7761 12 26 11.7761 26 11.5V10H27.5C27.7761 10 28 9.77614 28 9.5V8.5C28 8.22386 27.7761 8 27.5 8H26V6.5C26 6.22386 25.7761 6 25.5 6H24.5C24.2239 6 24 6.22386 24 6.5V8H22.5C22.2239 8 22 8.22386 22 8.5V9.5C22 9.77614 22.2239 10 22.5 10H24V11.5Z" fill="#019CAA"/>
<path d="M26 10V9H25V10H26ZM26 8H25V9H26V8ZM24 8V9H25V8H24ZM24 10H25V9H24V10ZM24.5 11C24.7761 11 25 11.2239 25 11.5H23C23 12.3284 23.6716 13 24.5 13V11ZM25.5 11H24.5V13H25.5V11ZM25 11.5C25 11.2239 25.2239 11 25.5 11V13C26.3284 13 27 12.3284 27 11.5H25ZM25 10V11.5H27V10H25ZM27.5 9H26V11H27.5V9ZM27 9.5C27 9.22386 27.2239 9 27.5 9V11C28.3284 11 29 10.3284 29 9.5H27ZM27 8.5V9.5H29V8.5H27ZM27.5 9C27.2239 9 27 8.77614 27 8.5H29C29 7.67157 28.3284 7 27.5 7V9ZM26 9H27.5V7H26V9ZM25 6.5V8H27V6.5H25ZM25.5 7C25.2239 7 25 6.77614 25 6.5H27C27 5.67157 26.3284 5 25.5 5V7ZM24.5 7H25.5V5H24.5V7ZM25 6.5C25 6.77614 24.7761 7 24.5 7V5C23.6716 5 23 5.67157 23 6.5H25ZM25 8V6.5H23V8H25ZM22.5 9H24V7H22.5V9ZM23 8.5C23 8.77614 22.7761 9 22.5 9V7C21.6716 7 21 7.67157 21 8.5H23ZM23 9.5V8.5H21V9.5H23ZM22.5 9C22.7761 9 23 9.22386 23 9.5H21C21 10.3284 21.6716 11 22.5 11V9ZM24 9H22.5V11H24V9ZM25 11.5V10H23V11.5H25Z" fill="#019CAA" mask="url(#path-5-inside-2_501_6066)"/>
</svg>
